<svg width="28" height="28" viewBox="0 0 28 28" fill="none" xmlns="http://www.w3.org/2000/svg">
<path fill-rule="evenodd" clip-rule="evenodd" d="M1 14C1 6.8203 6.8203 1 14 1C21.1797 1 27 6.8203 27 14C27 21.1797 21.1797 27 14 27C6.8203 27 1 21.1797 1 14ZM3.03695 10.9557C2.76847 11.9247 2.625 12.9456 2.625 14C2.625 15.167 2.80074 16.293 3.1272 17.3528H24.8728C25.1993 16.293 25.375 15.167 25.375 14C25.375 12.9456 25.2315 11.9247 24.963 10.9557H3.03695ZM3.62445 9.3307H24.3756C22.5935 5.37709 18.6182 2.625 14 2.625C9.38184 2.625 5.40646 5.37709 3.62445 9.3307ZM24.2309 18.9778H3.76915C5.61541 22.7654 9.50295 25.375 14 25.375C18.4971 25.375 22.3846 22.7654 24.2309 18.9778Z" fill="black" stroke="black" stroke-width="0.4"/>
<path d="M14 2L13.6241 2.51788C8.51426 9.55813 8.66742 19.1269 14 26V26" stroke="black" stroke-width="2"/>
<path d="M14 26L14.3759 25.4821C19.4857 18.4419 19.3326 8.8731 14 2V2" stroke="black" stroke-width="2"/>
</svg>
