<svg width="64" height="19" viewBox="0 0 64 19" fill="none" xmlns="http://www.w3.org/2000/svg">
<path d="M12.233 5.10804C11.793 4.6943 11.3367 4.39196 10.8642 4.201C10.3941 3.99414 9.9245 3.8907 9.45549 3.8907C8.86141 3.8907 8.35592 4.03392 7.93901 4.32035C7.5221 4.60678 7.28005 4.98074 7.21286 5.44221C7.16652 5.76047 7.2221 6.02303 7.37958 6.2299C7.53707 6.43677 7.75274 6.61977 8.02661 6.77889C8.31843 6.92211 8.64384 7.04941 9.00283 7.1608C9.37745 7.27219 9.7431 7.39154 10.0998 7.51885C11.5265 8.02806 12.5212 8.71231 13.084 9.57161C13.6647 10.415 13.8554 11.5209 13.6562 12.8894C13.5218 13.8124 13.2438 14.6478 12.8222 15.3957C12.4163 16.1436 11.8769 16.7881 11.2041 17.3291C10.5492 17.8543 9.77095 18.26 8.86939 18.5465C7.98116 18.8488 6.99768 19 5.91896 19C3.68335 19 1.71037 18.3237 0 16.9711L2.51893 13.1997C3.11645 13.8204 3.72933 14.2818 4.35755 14.5842C4.98577 14.8865 5.62819 15.0377 6.28481 15.0377C7.03522 15.0377 7.6157 14.8626 8.02624 14.5126C8.45242 14.1625 8.69794 13.7647 8.76282 13.3191C8.8022 13.0486 8.7889 12.8178 8.7229 12.6269C8.65921 12.42 8.52952 12.237 8.33382 12.0779C8.14043 11.9028 7.87438 11.7437 7.53566 11.6005C7.21257 11.4573 6.81363 11.2982 6.33884 11.1231C5.77257 10.9322 5.21643 10.7253 4.67042 10.5025C4.14236 10.2638 3.67945 9.95352 3.28168 9.57161C2.89954 9.1897 2.60947 8.71231 2.41148 8.13945C2.23143 7.55067 2.20628 6.81072 2.33602 5.9196C2.46576 5.02848 2.72347 4.22487 3.10913 3.50879C3.51275 2.7768 4.00958 2.1562 4.59963 1.64699C5.20762 1.12186 5.90768 0.716081 6.6998 0.429648C7.50755 0.143216 8.38043 0 9.31845 0C10.1939 0 11.09 0.127303 12.0065 0.381909C12.9254 0.620603 13.7879 0.978643 14.5939 1.45603L12.233 5.10804Z" fill="black"/>
<path d="M22.2484 0.501257L20.8235 10.2877C20.747 10.8128 20.6839 11.3539 20.6341 11.9108C20.6022 12.4518 20.6476 12.9451 20.7704 13.3907C20.9087 13.8363 21.1681 14.2023 21.5485 14.4887C21.9312 14.7592 22.5056 14.8945 23.2717 14.8945C24.0377 14.8945 24.6437 14.7592 25.0895 14.4887C25.5533 14.2023 25.9193 13.8363 26.1874 13.3907C26.4555 12.9451 26.6446 12.4518 26.7546 11.9108C26.8826 11.3539 26.9848 10.8128 27.0613 10.2877L28.4862 0.501257H33.059L31.5403 10.9322C31.1325 13.7328 30.2017 15.7776 28.7477 17.0666C27.3093 18.3555 25.2847 19 22.6739 19C20.0631 19 18.2184 18.3555 17.1397 17.0666C16.0611 15.7776 15.7256 13.7328 16.1334 10.9322L17.6521 0.501257H22.2484Z" fill="black"/>
<path d="M39.5862 7.92462L46.2717 0.501257H51.9467L43.6943 9.02261L49.9829 18.4987H44.0265L39.1831 10.6935L38.0466 18.4987H33.4504L36.0707 0.501257H40.667L39.5862 7.92462Z" fill="black"/>
<path d="M63.4231 4.46357H57.9592L57.5213 7.47111H62.6804L62.1035 11.4334H56.9444L56.4926 14.5364H61.9565L61.3796 18.4987H51.3194L53.9398 0.501257H64L63.4231 4.46357Z" fill="black"/>
</svg>
