<svg width="783" height="271" viewBox="0 0 783 271" fill="none" xmlns="http://www.w3.org/2000/svg">
<path d="M260.455 16.0909V0.818176H395.455V16.0909H336.455V187H319.455V16.0909H260.455Z" fill="black"/>
<path d="M352.727 223V36.8182H460.455V52.0909H369.727V122.182H452V137.455H369.727V223H352.727Z" fill="black"/>
<path d="M36.625 191.125C36.625 175.292 41.3334 158.25 50.75 140C60.25 121.667 72.0834 107.667 86.25 98C100.417 88.3333 114.125 83.5 127.375 83.5C134.292 83.5 141.917 85.3333 150.25 89C158.667 92.6667 165.958 99.9167 172.125 110.75C178.375 121.583 181.5 134.75 181.5 150.25C181.5 177.25 172.292 202.125 153.875 224.875C135.458 247.625 115.333 259 93.5 259C77.25 259 63.7084 253.083 52.875 241.25C42.0417 229.417 36.625 212.708 36.625 191.125ZM59 203.75C59 215.583 60.125 224.708 62.375 231.125C64.625 237.542 68.4167 242.875 73.75 247.125C79.0834 251.375 85.5 253.5 93 253.5C104.75 253.5 115.667 247.708 125.75 236.125C135.917 224.542 144.25 208.375 150.75 187.625C157.25 166.875 160.5 149.167 160.5 134.5C160.5 119.5 157.333 108.25 151 100.75C144.75 93.1667 136.708 89.375 126.875 89.375C115.375 89.375 104.5 94.9167 94.25 106C84 117.083 75.5417 132.542 68.875 152.375C62.2917 172.208 59 189.333 59 203.75Z" fill="black"/>
<path d="M502.727 223V36.8182H519.727V207.727H608.455V223H502.727Z" fill="black"/>
<path d="M607.727 0.818176V187H590.727V0.818176H607.727Z" fill="black"/>
<path d="M782.364 129.909C782.364 149.303 778.909 166.182 772 180.545C765.091 194.848 755.576 205.939 743.455 213.818C731.394 221.636 717.515 225.545 701.818 225.545C686.121 225.545 672.212 221.636 660.091 213.818C648.03 205.939 638.546 194.848 631.636 180.545C624.788 166.182 621.364 149.303 621.364 129.909C621.364 110.515 624.788 93.6667 631.636 79.3636C638.546 65 648.061 53.9091 660.182 46.0909C672.303 38.2121 686.182 34.2727 701.818 34.2727C717.515 34.2727 731.394 38.2121 743.455 46.0909C755.576 53.9091 765.091 65 772 79.3636C778.909 93.6667 782.364 110.515 782.364 129.909ZM765.818 129.909C765.818 113.242 763.03 98.9697 757.455 87.0909C751.879 75.1515 744.273 66.0303 734.636 59.7273C725 53.4242 714.061 50.2727 701.818 50.2727C689.636 50.2727 678.727 53.4242 669.091 59.7273C659.455 66.0303 651.818 75.1212 646.182 87C640.606 98.8788 637.818 113.182 637.818 129.909C637.818 146.576 640.606 160.848 646.182 172.727C651.758 184.606 659.364 193.727 669 200.091C678.636 206.394 689.576 209.545 701.818 209.545C714.061 209.545 725 206.394 734.636 200.091C744.333 193.788 751.97 184.697 757.545 172.818C763.121 160.879 765.879 146.576 765.818 129.909Z" fill="black"/>
<path d="M187.727 219V32.8182H247.818C261.03 32.8182 272.061 35.2121 280.909 40C289.818 44.7273 296.515 51.303 301 59.7273C305.545 68.0909 307.818 77.697 307.818 88.5455C307.818 99.3939 305.545 108.97 301 117.273C296.515 125.576 289.849 132.061 281 136.727C272.152 141.394 261.182 143.727 248.091 143.727H196.909V128.182H247.636C257.333 128.182 265.394 126.576 271.818 123.364C278.303 120.152 283.121 115.576 286.273 109.636C289.485 103.697 291.091 96.6667 291.091 88.5455C291.091 80.4242 289.485 73.3333 286.273 67.2727C283.061 61.1515 278.212 56.4242 271.727 53.0909C265.303 49.7576 257.182 48.0909 247.364 48.0909H204.727V219H187.727ZM269.818 135L315.636 219H296L250.636 135H269.818Z" fill="black"/>
<path d="M0.727295 219V32.8182H60.8182C74.0303 32.8182 85.0606 35.3636 93.9091 40.4545C102.818 45.4848 109.515 52.3333 114 61C118.545 69.6667 120.818 79.4242 120.818 90.2727C120.818 101.121 118.576 110.909 114.091 119.636C109.606 128.303 102.939 135.182 94.0909 140.273C85.2424 145.303 74.2424 147.818 61.0909 147.818H13.8182V132.545H60.6364C70.394 132.545 78.4849 130.727 84.9091 127.091C91.3334 123.394 96.1212 118.364 99.2728 112C102.485 105.636 104.091 98.3939 104.091 90.2727C104.091 82.1515 102.485 74.9091 99.2728 68.5455C96.1212 62.1818 91.3031 57.1818 84.8182 53.5455C78.394 49.9091 70.2425 48.0909 60.3637 48.0909H17.7273V219H0.727295Z" fill="black"/>
<path d="M569.364 174.909C569.364 194.303 565.909 211.182 559 225.545C552.091 239.848 542.576 250.939 530.455 258.818C518.394 266.636 504.515 270.545 488.818 270.545C473.121 270.545 459.212 266.636 447.091 258.818C435.03 250.939 425.545 239.848 418.636 225.545C411.788 211.182 408.364 194.303 408.364 174.909C408.364 155.515 411.788 138.667 418.636 124.364C425.545 110 435.061 98.9091 447.182 91.0909C459.303 83.2121 473.182 79.2727 488.818 79.2727C504.515 79.2727 518.394 83.2121 530.455 91.0909C542.576 98.9091 552.091 110 559 124.364C565.909 138.667 569.364 155.515 569.364 174.909ZM552.818 174.909C552.818 158.242 550.03 143.97 544.455 132.091C538.879 120.152 531.273 111.03 521.636 104.727C512 98.4242 501.061 95.2727 488.818 95.2727C476.636 95.2727 465.727 98.4242 456.091 104.727C446.455 111.03 438.818 120.121 433.182 132C427.606 143.879 424.818 158.182 424.818 174.909C424.818 191.576 427.606 205.848 433.182 217.727C438.758 229.606 446.364 238.727 456 245.091C465.636 251.394 476.576 254.545 488.818 254.545C501.061 254.545 512 251.394 521.636 245.091C531.333 238.788 538.97 229.697 544.545 217.818C550.121 205.879 552.879 191.576 552.818 174.909Z" fill="black"/>
</svg>
