<svg width="68" height="56" viewBox="0 0 68 56" fill="none" xmlns="http://www.w3.org/2000/svg">
<g clip-path="url(#clip0_202_21)">
<path d="M60.8572 14.0796C60.8984 14.6753 60.8984 15.271 60.8984 15.8722C60.8984 34.1902 46.9693 55.3165 21.4995 55.3165V55.3055C13.9756 55.3165 6.60804 53.1589 0.27417 49.0906C1.3682 49.2224 2.46772 49.2883 3.56998 49.291C9.80514 49.2965 15.8621 47.202 20.7674 43.3451C14.8421 43.2326 9.6461 39.3647 7.83094 33.7181C9.90659 34.1189 12.0453 34.0365 14.0826 33.4792C7.62256 32.1726 2.97498 26.4902 2.97498 19.891V19.7153C4.89981 20.7887 7.05498 21.3843 9.25949 21.4502C3.17514 17.3792 1.29965 9.27571 4.97385 2.94003C12.0042 11.6008 22.3769 16.8659 33.5119 17.4232C32.3959 12.6083 33.9205 7.56277 37.5179 4.17807C43.095 -1.07056 51.8664 -0.801541 57.109 4.77924C60.2101 4.16709 63.1824 3.02787 65.9024 1.41375C64.8687 4.62277 62.7053 7.34866 59.8153 9.08081C62.56 8.75689 65.2416 8.0212 67.7669 6.89846C65.9079 9.68748 63.5663 12.1169 60.8572 14.0796Z" fill="#555555"/>
</g>
<defs>
<clipPath id="clip0_202_21">
<rect width="68" height="56" fill="white"/>
</clipPath>
</defs>
</svg>
